<?xml version="1.0" encoding="utf-8"?>
<!-- Generator: Adobe Illustrator 23.0.5, SVG Export Plug-In . SVG Version: 6.00 Build 0)  -->
<svg version="1.1" id="Layer_1" xmlns="http://www.w3.org/2000/svg" xmlns:xlink="http://www.w3.org/1999/xlink" x="0px" y="0px"
	 viewBox="0 0 1920 1080" style="enable-background:new 0 0 1920 1080;" xml:space="preserve">
<style type="text/css">
	.st0{fill:#752E2E;}
	.st1{fill:url(#SVGID_1_);}
	.st2{fill:url(#SVGID_2_);}
	.st3{fill:url(#SVGID_3_);}
	.st4{fill:url(#SVGID_4_);}
	.st5{fill:url(#SVGID_5_);}
	.st6{fill:url(#SVGID_6_);}
	.st7{fill:url(#SVGID_7_);}
	.st8{fill:url(#SVGID_8_);}
	.st9{fill:url(#SVGID_9_);}
	.st10{fill:url(#SVGID_10_);}
	.st11{fill:url(#SVGID_11_);}
	.st12{fill:url(#SVGID_12_);}
	.st13{fill:url(#SVGID_13_);}
	.st14{fill:url(#SVGID_14_);}
	.st15{fill:#FFFFFF;}
	.st16{fill:url(#SVGID_15_);stroke:url(#SVGID_16_);stroke-miterlimit:10;}
	.st17{fill:url(#SVGID_17_);}
	.st18{fill:url(#SVGID_18_);}
	.st19{fill:url(#SVGID_19_);}
	.st20{fill:url(#SVGID_20_);}
	.st21{fill:url(#SVGID_21_);}
	.st22{fill:url(#SVGID_22_);}
</style>
<rect x="2.3" y="0.6" class="st0" width="1917.7" height="1079.4"/>
<g>
	<radialGradient id="SVGID_1_" cx="794.6669" cy="44.2837" r="625.1552" gradientUnits="userSpaceOnUse">
		<stop  offset="0" style="stop-color:#FFFFFF"/>
		<stop  offset="0" style="stop-color:#EEFBEB"/>
		<stop  offset="0.2089" style="stop-color:#4EDB31"/>
		<stop  offset="1" style="stop-color:#000000"/>
	</radialGradient>
	<rect x="651.8" y="138.6" class="st1" width="362.3" height="306.9"/>
	<radialGradient id="SVGID_2_" cx="794.6669" cy="44.2837" r="625.1552" gradientUnits="userSpaceOnUse">
		<stop  offset="0" style="stop-color:#FFFFFF"/>
		<stop  offset="0" style="stop-color:#EEFBEB"/>
		<stop  offset="0.2089" style="stop-color:#4EDB31"/>
		<stop  offset="1" style="stop-color:#000000"/>
	</radialGradient>
	<path class="st2" d="M1013.6,139.2v305.8H652.4V139.2H1013.6 M1014.8,138H651.2v308.1h363.5V138L1014.8,138z"/>
</g>
<g>
	<radialGradient id="SVGID_3_" cx="1356.6982" cy="148.0823" r="789.6728" gradientUnits="userSpaceOnUse">
		<stop  offset="0" style="stop-color:#FFFFFF"/>
		<stop  offset="0" style="stop-color:#EEFBEB"/>
		<stop  offset="0.2089" style="stop-color:#4EDB31"/>
		<stop  offset="1" style="stop-color:#000000"/>
	</radialGradient>
	<polygon class="st3" points="1254.2,299.8 1651.3,29.6 1832.9,280.9 1435.8,551.2 	"/>
	<radialGradient id="SVGID_4_" cx="1356.6982" cy="148.0823" r="789.6728" gradientUnits="userSpaceOnUse">
		<stop  offset="0" style="stop-color:#FFFFFF"/>
		<stop  offset="0" style="stop-color:#EEFBEB"/>
		<stop  offset="0.2089" style="stop-color:#4EDB31"/>
		<stop  offset="1" style="stop-color:#000000"/>
	</radialGradient>
	<path class="st4" d="M1651.1,30.3l180.9,250.4l-396.2,269.6l-180.9-250.4L1651.1,30.3 M1651.4,28.8l-398.1,270.9l182.3,252.2
		L1833.7,281L1651.4,28.8L1651.4,28.8z"/>
</g>
<g>
	<radialGradient id="SVGID_5_" cx="1770.6266" cy="921.5082" r="1008.7451" gradientUnits="userSpaceOnUse">
		<stop  offset="0" style="stop-color:#FFFFFF"/>
		<stop  offset="0" style="stop-color:#EEFBEB"/>
		<stop  offset="0.2089" style="stop-color:#4EDB31"/>
		<stop  offset="1" style="stop-color:#000000"/>
	</radialGradient>
	<rect x="1153.4" y="795.4" class="st5" width="524" height="284"/>
	<radialGradient id="SVGID_6_" cx="1770.6266" cy="921.5082" r="1008.7451" gradientUnits="userSpaceOnUse">
		<stop  offset="0" style="stop-color:#FFFFFF"/>
		<stop  offset="0" style="stop-color:#EEFBEB"/>
		<stop  offset="0.2089" style="stop-color:#4EDB31"/>
		<stop  offset="1" style="stop-color:#000000"/>
	</radialGradient>
	<path class="st6" d="M1676.9,796v282.9H1154V796H1676.9 M1678.1,794.8h-525.2V1080h525.2V794.8L1678.1,794.8z"/>
</g>
<g>
	<radialGradient id="SVGID_7_" cx="90.8621" cy="545.5548" r="1075.2583" gradientUnits="userSpaceOnUse">
		<stop  offset="0" style="stop-color:#FFFFFF"/>
		<stop  offset="0" style="stop-color:#EEFBEB"/>
		<stop  offset="0.2089" style="stop-color:#4EDB31"/>
		<stop  offset="1" style="stop-color:#000000"/>
	</radialGradient>
	<rect x="58.2" y="560.6" class="st7" width="413.1" height="518.8"/>
	<radialGradient id="SVGID_8_" cx="90.8621" cy="545.5548" r="1075.2583" gradientUnits="userSpaceOnUse">
		<stop  offset="0" style="stop-color:#FFFFFF"/>
		<stop  offset="0" style="stop-color:#EEFBEB"/>
		<stop  offset="0.2089" style="stop-color:#4EDB31"/>
		<stop  offset="1" style="stop-color:#000000"/>
	</radialGradient>
	<path class="st8" d="M470.7,561.2v517.7H58.8V561.2H470.7 M471.8,560H57.6v520h414.3V560L471.8,560z"/>
</g>
<g>
	<radialGradient id="SVGID_9_" cx="1156.696" cy="810.1146" r="973.7736" gradientUnits="userSpaceOnUse">
		<stop  offset="0" style="stop-color:#FFFFFF"/>
		<stop  offset="0" style="stop-color:#EEFBEB"/>
		<stop  offset="0.2089" style="stop-color:#4EDB31"/>
		<stop  offset="1" style="stop-color:#000000"/>
	</radialGradient>
	<rect x="507.8" y="930.5" class="st9" width="613.7" height="148.9"/>
	<radialGradient id="SVGID_10_" cx="1156.696" cy="810.1146" r="973.7736" gradientUnits="userSpaceOnUse">
		<stop  offset="0" style="stop-color:#FFFFFF"/>
		<stop  offset="0" style="stop-color:#EEFBEB"/>
		<stop  offset="0.2089" style="stop-color:#4EDB31"/>
		<stop  offset="1" style="stop-color:#000000"/>
	</radialGradient>
	<path class="st10" d="M1121,931.1v147.7H508.4V931.1H1121 M1122.2,930H507.3v150h614.9V930L1122.2,930z"/>
</g>
<g>
	<radialGradient id="SVGID_11_" cx="1356.6982" cy="663.2776" r="1216.4712" gradientUnits="userSpaceOnUse">
		<stop  offset="0" style="stop-color:#FFFFFF"/>
		<stop  offset="0" style="stop-color:#EEFBEB"/>
		<stop  offset="0.2089" style="stop-color:#4EDB31"/>
		<stop  offset="1" style="stop-color:#000000"/>
	</radialGradient>
	<rect x="1430.4" y="572" class="st11" width="482.7" height="202.7"/>
	<radialGradient id="SVGID_12_" cx="1356.6982" cy="663.2776" r="1216.4712" gradientUnits="userSpaceOnUse">
		<stop  offset="0" style="stop-color:#FFFFFF"/>
		<stop  offset="0" style="stop-color:#EEFBEB"/>
		<stop  offset="0.2089" style="stop-color:#4EDB31"/>
		<stop  offset="1" style="stop-color:#000000"/>
	</radialGradient>
	<path class="st12" d="M1912.5,572.6v201.6H1431V572.6H1912.5 M1913.7,571.4h-483.9v203.9h483.9V571.4L1913.7,571.4z"/>
</g>
<g>
	<radialGradient id="SVGID_13_" cx="1325.0522" cy="56.9421" r="542.8445" gradientUnits="userSpaceOnUse">
		<stop  offset="0" style="stop-color:#FFFFFF"/>
		<stop  offset="0" style="stop-color:#EEFBEB"/>
		<stop  offset="0.2089" style="stop-color:#4EDB31"/>
		<stop  offset="1" style="stop-color:#000000"/>
	</radialGradient>
	<rect x="1046" y="62.4" class="st13" width="191.2" height="334.4"/>
	<radialGradient id="SVGID_14_" cx="1325.0522" cy="56.9421" r="542.8445" gradientUnits="userSpaceOnUse">
		<stop  offset="0" style="stop-color:#FFFFFF"/>
		<stop  offset="0" style="stop-color:#EEFBEB"/>
		<stop  offset="0.2089" style="stop-color:#4EDB31"/>
		<stop  offset="1" style="stop-color:#000000"/>
	</radialGradient>
	<path class="st14" d="M1236.6,63v333.3h-190V63H1236.6 M1237.8,61.8h-192.4v335.6h192.4V61.8L1237.8,61.8z"/>
</g>
<g>
	<rect x="1141.6" y="398" class="st15" width="3.5" height="13.7"/>
	<path d="M1144.6,398.6v12.6h-2.4v-12.6H1144.6 M1145.8,397.4h-4.7v14.9h4.7V397.4L1145.8,397.4z"/>
</g>
<radialGradient id="SVGID_15_" cx="809.857" cy="531.6306" r="512.0945" fx="984.8157" fy="235.673" gradientUnits="userSpaceOnUse">
	<stop  offset="0" style="stop-color:#FFFFFF"/>
	<stop  offset="0" style="stop-color:#EEFBEB"/>
	<stop  offset="0.2089" style="stop-color:#4EDB31"/>
	<stop  offset="1" style="stop-color:#000000"/>
</radialGradient>
<linearGradient id="SVGID_16_" gradientUnits="userSpaceOnUse" x1="572.6456" y1="733.5315" x2="859.7246" y2="733.5315">
	<stop  offset="0" style="stop-color:#FFFFFF"/>
	<stop  offset="1" style="stop-color:#000000"/>
</linearGradient>
<rect x="573.1" y="625.3" class="st16" width="286.1" height="216.5"/>
<g>
	<radialGradient id="SVGID_17_" cx="763.0211" cy="553.1498" r="780.6854" gradientUnits="userSpaceOnUse">
		<stop  offset="0" style="stop-color:#FFFFFF"/>
		<stop  offset="0" style="stop-color:#EEFBEB"/>
		<stop  offset="0.2089" style="stop-color:#4EDB31"/>
		<stop  offset="1" style="stop-color:#000000"/>
	</radialGradient>
	<rect x="961.1" y="478.2" class="st17" width="301" height="272.6"/>
	<radialGradient id="SVGID_18_" cx="763.0211" cy="553.1498" r="780.6854" gradientUnits="userSpaceOnUse">
		<stop  offset="0" style="stop-color:#FFFFFF"/>
		<stop  offset="0" style="stop-color:#EEFBEB"/>
		<stop  offset="0.2089" style="stop-color:#4EDB31"/>
		<stop  offset="1" style="stop-color:#000000"/>
	</radialGradient>
	<path class="st18" d="M1261.5,478.7v271.4H961.7V478.7H1261.5 M1262.7,477.6H960.5v273.7h302.1V477.6L1262.7,477.6z"/>
</g>
<g>
	<radialGradient id="SVGID_19_" cx="523.778" cy="229.0958" r="425.4132" gradientUnits="userSpaceOnUse">
		<stop  offset="0" style="stop-color:#FFFFFF"/>
		<stop  offset="0" style="stop-color:#EEFBEB"/>
		<stop  offset="0.2089" style="stop-color:#4EDB31"/>
		<stop  offset="1" style="stop-color:#000000"/>
	</radialGradient>
	<rect x="319" y="304.1" class="st19" width="312.8" height="230.2"/>
	<radialGradient id="SVGID_20_" cx="523.778" cy="229.0958" r="425.4132" gradientUnits="userSpaceOnUse">
		<stop  offset="0" style="stop-color:#FFFFFF"/>
		<stop  offset="0" style="stop-color:#EEFBEB"/>
		<stop  offset="0.2089" style="stop-color:#4EDB31"/>
		<stop  offset="1" style="stop-color:#000000"/>
	</radialGradient>
	<path class="st20" d="M631.2,304.6v229.1H319.6V304.6H631.2 M632.4,303.5H318.4v231.3h313.9V303.5L632.4,303.5z"/>
</g>
<g>
	<radialGradient id="SVGID_21_" cx="574.4114" cy="48.0812" r="777.3976" gradientUnits="userSpaceOnUse">
		<stop  offset="0" style="stop-color:#FFFFFF"/>
		<stop  offset="0" style="stop-color:#EEFBEB"/>
		<stop  offset="0.2089" style="stop-color:#4EDB31"/>
		<stop  offset="1" style="stop-color:#000000"/>
	</radialGradient>
	<rect x="0.6" y="0.6" class="st21" width="447.3" height="292"/>
	<radialGradient id="SVGID_22_" cx="574.4114" cy="48.0812" r="777.3976" gradientUnits="userSpaceOnUse">
		<stop  offset="0" style="stop-color:#FFFFFF"/>
		<stop  offset="0" style="stop-color:#EEFBEB"/>
		<stop  offset="0.2089" style="stop-color:#4EDB31"/>
		<stop  offset="1" style="stop-color:#000000"/>
	</radialGradient>
	<path class="st22" d="M447.3,1.1V292H1.2V1.1H447.3 M448.5,0H0v293.2h448.5V0L448.5,0z"/>
</g>
</svg>
